HIERARCHY
ROOT SpineBase
{
  OFFSET 0.000000 0.000000 0.000000
  CHANNELS 6 Xposition Yposition Zposition Zrotation Xrotation Yrotation
  JOINT SpineMid
  {
    OFFSET 0.000000 31.485755 0.000000
    CHANNELS 3 Zrotation Xrotation Yrotation
    JOINT SpineShoulder
    {
      OFFSET 0.060988 23.353425 -0.670488
      CHANNELS 3 Zrotation Xrotation Yrotation
      JOINT Neck
      {
        OFFSET 0.077102 7.740954 -0.537272
        CHANNELS 3 Zrotation Xrotation Yrotation
        JOINT Head
        {
          OFFSET 5.077327 13.216406 4.587051
          CHANNELS 3 Zrotation Xrotation Yrotation
          End Site
          {
            OFFSET 0 0 0
          }
        }
      }
      JOINT ShoulderLeft
      {
        OFFSET -11.662687 -2.260861 -11.508144
        CHANNELS 3 Zrotation Xrotation Yrotation
        JOINT ElbowLeft
        {
          OFFSET -6.617812 -24.433660 -6.422415
          CHANNELS 3 Zrotation Xrotation Yrotation
          JOINT WristLeft
          {
            OFFSET -0.908741 -21.591961 -5.682071
            CHANNELS 3 Zrotation Xrotation Yrotation
            JOINT HandLeft
            {
              OFFSET -0.020801 -8.379174 1.918600
              CHANNELS 3 Zrotation Xrotation Yrotation
              JOINT HandTipLeft
              {
                OFFSET -0.949683 -8.169971 -0.899038
                CHANNELS 3 Zrotation Xrotation Yrotation
                End Site
                {
                  OFFSET 0 0 0
                }
              }
              JOINT ThumbLeft
              {
                OFFSET 5.723702 1.114121 4.322110
                CHANNELS 3 Zrotation Xrotation Yrotation
                End Site
                {
                  OFFSET 0 0 0
                }
              }
            }
          }
        }
      }
      JOINT ShoulderRight
      {
        OFFSET 11.749315 -3.286891 11.784203
        CHANNELS 3 Zrotation Xrotation Yrotation
        JOINT ElbowRight
        {
          OFFSET 2.559966 -26.979159 3.808019
          CHANNELS 3 Zrotation Xrotation Yrotation
          JOINT WristRight
          {
            OFFSET 0.965083 -24.680965 -1.954508
            CHANNELS 3 Zrotation Xrotation Yrotation
            JOINT HandRight
            {
              OFFSET -0.931286 -7.878872 0.641449
              CHANNELS 3 Zrotation Xrotation Yrotation
              JOINT HandTipRight
              {
                OFFSET -0.836256 -7.195709 -0.369961
                CHANNELS 3 Zrotation Xrotation Yrotation
                End Site
                {
                  OFFSET 0 0 0
                }
              }
              JOINT ThumbRight
              {
                OFFSET 2.040747 -2.711613 -1.759888
                CHANNELS 3 Zrotation Xrotation Yrotation
                End Site
                {
                  OFFSET 0 0 0
                }
              }
            }
          }
        }
      }
    }
  }
  JOINT HipLeft
  {
    OFFSET -4.628137 1.730821 -7.753208
    CHANNELS 3 Zrotation Xrotation Yrotation
    JOINT KneeLeft
    {
      OFFSET -11.872196 -34.677975 -5.452550
      CHANNELS 3 Zrotation Xrotation Yrotation
      JOINT AnkleLeft
      {
        OFFSET -7.690494 -39.218106 5.558631
        CHANNELS 3 Zrotation Xrotation Yrotation
        JOINT FootLeft
        {
          OFFSET 1.166156 -7.748599 -6.768992
          CHANNELS 3 Zrotation Xrotation Yrotation
          End Site
          {
            OFFSET 0 0 0
          }
        }
      }
    }
  }
  JOINT HipRight
  {
    OFFSET 5.291364 0.174052 0.840491
    CHANNELS 3 Zrotation Xrotation Yrotation
    JOINT KneeRight
    {
      OFFSET -5.917627 -38.109771 0.961014
      CHANNELS 3 Zrotation Xrotation Yrotation
      JOINT AnkleRight
      {
        OFFSET -8.980460 -35.829474 7.975192
        CHANNELS 3 Zrotation Xrotation Yrotation
        JOINT FootRight
        {
          OFFSET 1.844774 -8.292850 -4.675914
          CHANNELS 3 Zrotation Xrotation Yrotation
          End Site
          {
            OFFSET 0 0 0
          }
        }
      }
    }
  }
}
MOTION
Frames: 14
Frame Time: 0.033333
-29.100929 89.353486 342.037043 -5.731307 -5.242623 -26.555197 0.676066 -0.214045 26.111483 0.200508 -0.325194 -0.175865 -1.951521 5.133479 3.396799 0.000000 0.000000 0.000000 -11.199740 7.488515 5.584804 110.493656 16.473525 -48.781205 33.580493 51.437551 82.327438 -29.457817 13.224379 -101.885026 0.000000 0.000000 0.000000 0.000000 0.000000 0.000000 -3.366929 -7.446392 -2.534614 8.283165 22.467030 1.677154 11.843777 15.272834 -3.008334 5.077566 -0.396668 -0.609176 0.000000 0.000000 0.000000 0.000000 0.000000 0.000000 17.659289 41.653309 5.607323 -37.384051 -49.844141 -1.112488 12.289974 -33.078057 -19.973576 0.000000 0.000000 0.000000 13.547107 15.209205 23.912938 -21.442262 2.054885 -3.328916 -0.021737 21.990495 13.740107 0.000000 0.000000 0.000000
-29.122298 87.502804 342.312738 -5.538729 -5.494523 -26.506397 0.649517 -0.253773 26.065132 0.194819 -0.342500 -0.168352 -1.160320 4.579848 3.295148 0.000000 0.000000 0.000000 -10.363754 10.246447 4.925288 111.419925 20.068520 -50.721678 46.699600 45.200839 139.694226 11.010783 29.873054 -173.356535 0.000000 0.000000 0.000000 0.000000 0.000000 0.000000 -3.493478 -5.978652 -2.311277 5.365044 20.494556 2.693289 5.796218 10.941693 -2.434899 11.826105 2.738544 0.335570 0.000000 0.000000 0.000000 0.000000 0.000000 0.000000 21.067367 48.275061 -0.341579 -46.897170 -58.999858 -7.374534 16.429656 -21.958794 -18.411704 0.000000 0.000000 0.000000 15.648793 14.468516 23.797019 -22.431662 5.403554 -3.340312 4.150050 33.503868 12.872165 0.000000 0.000000 0.000000
-29.147181 86.613804 342.366062 -5.394962 -5.541816 -26.312444 0.588527 -0.218484 25.883650 0.205222 -0.299347 -0.162265 -0.706843 3.875019 3.271964 0.000000 0.000000 0.000000 -9.249033 10.384581 4.411710 107.679214 23.624338 -51.632582 29.175226 55.571809 86.434918 -32.516987 8.015251 -100.703623 0.000000 0.000000 0.000000 0.000000 0.000000 0.000000 -3.234847 -3.642423 -1.875483 6.561216 19.841941 2.120680 19.559005 12.306440 -1.963372 -2.310499 0.220169 -2.865237 0.000000 0.000000 0.000000 0.000000 0.000000 0.000000 23.384598 50.534110 -3.472465 -50.596704 -61.013407 -9.889500 19.013992 -10.029752 -15.344468 0.000000 0.000000 0.000000 17.092246 13.520492 23.693191 -23.673043 7.470390 -3.340393 7.470716 32.313220 10.750335 0.000000 0.000000 0.000000
-29.055382 86.439876 342.380644 -5.232679 -5.592445 -26.048620 0.475253 -0.107946 25.637465 0.259543 -0.201161 -0.154054 -0.460814 3.151979 3.272761 0.000000 0.000000 0.000000 -8.312184 8.775351 4.185826 98.073285 26.632994 -48.841533 21.653297 49.388563 50.536679 -25.552005 -13.048836 -63.969248 0.000000 0.000000 0.000000 0.000000 0.000000 0.000000 -2.526780 0.343079 -1.136490 11.361253 19.527769 0.389570 25.682414 15.228741 -2.221510 -10.169114 -2.480359 -5.393264 0.000000 0.000000 0.000000 0.000000 0.000000 0.000000 22.538074 48.084434 -1.733298 -45.515047 -55.763423 -5.744038 20.447660 -0.469529 -13.170863 0.000000 0.000000 0.000000 16.837357 12.934223 23.600554 -23.553874 8.488760 -3.425946 13.092915 30.213796 7.031369 0.000000 0.000000 0.000000
-28.836688 87.406691 342.095027 -5.101876 -5.271169 -26.164692 0.418272 -0.109534 25.780362 0.327114 -0.060140 -0.147070 -0.717342 2.368800 3.401984 0.000000 0.000000 0.000000 -8.047536 5.903295 4.358284 80.893643 28.427659 -40.352064 7.578990 20.769083 35.318666 0.640170 -7.611881 -35.230532 0.000000 0.000000 0.000000 0.000000 0.000000 0.000000 -2.192220 3.767120 -0.534341 21.904186 24.066361 -2.839495 19.984263 8.050514 1.214020 -5.068297 4.921481 -8.046335 0.000000 0.000000 0.000000 0.000000 0.000000 0.000000 19.375302 41.528426 4.102737 -36.234851 -44.228381 0.292170 15.265976 3.569140 -7.193326 0.000000 0.000000 0.000000 16.984099 13.358997 23.622972 -24.191584 8.121384 -3.585207 15.232331 28.576844 5.699532 0.000000 0.000000 0.000000
-28.901249 88.147188 341.380088 -5.185637 -4.671694 -26.417575 0.266579 -0.138192 26.057457 0.340152 0.061221 -0.155675 0.534712 2.054419 2.817870 0.000000 0.000000 0.000000 -8.375711 2.558451 4.853537 60.959299 25.183370 -28.444340 2.252450 12.224527 21.724468 5.243203 -5.787785 -19.353092 0.000000 0.000000 0.000000 0.000000 0.000000 0.000000 0.187080 4.910976 -0.167487 34.076317 30.964197 -8.651567 19.865986 1.070882 7.006666 -1.995626 13.108848 -15.460563 0.000000 0.000000 0.000000 0.000000 0.000000 0.000000 17.948552 33.877187 9.448696 -30.695820 -31.812983 2.629302 13.033039 6.504748 -4.929236 0.000000 0.000000 0.000000 14.843861 13.478282 24.089138 -21.881511 6.344573 -3.599125 17.397369 25.629850 3.528764 0.000000 0.000000 0.000000
-29.242634 88.825870 340.365283 -5.436350 -3.781582 -27.056417 0.427826 -0.165906 26.714860 0.337891 0.084022 -0.163594 1.741651 2.826521 1.816961 0.000000 0.000000 0.000000 -8.424482 -0.535889 5.148876 43.417739 17.937789 -18.590346 1.906626 14.739772 12.396787 2.278752 -7.029593 -11.903926 0.000000 0.000000 0.000000 0.000000 0.000000 0.000000 1.452145 4.622673 -0.040922 58.416196 39.438111 -22.465068 39.761490 7.017693 22.990825 -22.026299 14.822123 -34.866160 0.000000 0.000000 0.000000 0.000000 0.000000 0.000000 17.784674 25.954187 14.601686 -26.429992 -19.480759 3.312589 12.348712 8.211337 -4.790743 0.000000 0.000000 0.000000 15.524409 15.184780 24.330234 -23.690403 4.108556 -3.958689 24.970086 25.172139 -0.970878 0.000000 0.000000 0.000000
-29.625471 88.927136 339.206364 -5.500824 -2.887419 -29.380281 0.423127 -0.183941 29.076280 0.321917 0.015753 -0.174177 2.974566 4.782376 0.373957 0.000000 0.000000 0.000000 -7.108025 -2.580464 4.912402 27.942383 10.257252 -11.362828 2.379895 20.965555 5.550396 1.481043 -11.069660 -6.206805 0.000000 0.000000 0.000000 0.000000 0.000000 0.000000 3.234219 2.626997 -0.040663 90.153482 41.255076 -43.998193 63.802148 32.375880 62.192951 -42.489966 38.946024 -82.212106 0.000000 0.000000 0.000000 0.000000 0.000000 0.000000 17.800644 18.964185 20.853518 -23.495734 -9.364806 2.918982 14.061418 8.574425 -6.850598 0.000000 0.000000 0.000000 16.826657 19.000074 25.735692 -28.750222 0.552958 -4.987924 34.298486 25.477296 -5.733768 0.000000 0.000000 0.000000
-29.999145 87.276155 338.269799 -5.304245 -2.440945 -32.223929 0.261917 -0.177186 31.953738 0.302883 0.015945 -0.175730 3.876334 6.831423 -0.943552 0.000000 0.000000 0.000000 -5.486850 -3.392037 4.477480 16.910180 4.743791 -6.976731 4.109990 22.570119 2.023705 0.652593 -12.075840 -3.565752 0.000000 0.000000 0.000000 0.000000 0.000000 0.000000 5.259801 1.861911 0.150570 112.801946 34.477338 -57.044435 59.149182 23.042757 -151.499291 53.251158 -15.294143 126.441612 0.000000 0.000000 0.000000 0.000000 0.000000 0.000000 17.412163 14.929546 26.131827 -21.314051 -3.209699 2.320491 17.094704 4.401601 -10.291029 0.000000 0.000000 0.000000 19.368354 24.376446 26.959805 -37.309038 -2.078588 -7.101660 41.951706 24.811960 -8.103129 0.000000 0.000000 0.000000
-30.228861 85.035027 337.495675 -4.946922 -2.090704 -36.267553 0.265803 -0.201796 36.029225 0.318812 -0.048632 -0.165295 3.692563 8.118303 -1.584215 0.000000 0.000000 0.000000 -3.661641 -3.184305 3.807460 9.322570 1.438517 -4.206069 4.448451 18.830135 0.290859 0.989142 -9.831309 -1.867693 0.000000 0.000000 0.000000 0.000000 0.000000 0.000000 7.297320 2.023947 0.428625 122.655024 27.984257 -60.418388 94.176395 29.041435 -62.843456 -92.619385 -59.185561 -51.305679 0.000000 0.000000 0.000000 0.000000 0.000000 0.000000 16.767955 12.518863 31.868843 -20.186476 0.532050 1.716530 26.278964 13.820287 -17.231832 0.000000 0.000000 0.000000 22.109846 31.430737 28.640186 -48.415525 -5.498186 -10.298425 43.109063 30.549068 -6.213827 0.000000 0.000000 0.000000
-30.427143 83.517666 337.240794 -4.704179 -2.076470 -39.213718 0.123147 -0.213612 38.989304 0.283355 -0.118422 -0.165065 3.769483 8.343586 -1.742306 0.000000 0.000000 0.000000 -2.752944 -2.276965 3.358853 7.621223 -0.307547 -3.359036 6.935689 18.879309 0.050350 1.278871 -9.465952 -2.268833 0.000000 0.000000 0.000000 0.000000 0.000000 0.000000 8.592550 1.903256 0.559943 123.854804 25.994300 -60.585144 104.181366 28.644033 -61.772191 -110.858316 -53.272026 -62.750261 0.000000 0.000000 0.000000 0.000000 0.000000 0.000000 15.979612 11.310716 35.791205 -19.362251 2.067898 1.339679 31.935832 15.984973 -21.942852 0.000000 0.000000 0.000000 23.507731 36.695103 29.701500 -56.059395 -7.948797 -12.871500 41.407407 33.932252 -3.404306 0.000000 0.000000 0.000000
-30.584104 83.059532 337.408448 -4.706551 -2.249631 -40.748144 0.051447 -0.321210 40.514448 0.253172 -0.195323 -0.173361 4.252534 7.664995 -1.529832 0.000000 0.000000 0.000000 -2.587479 -0.834678 3.138215 11.929607 0.785044 -4.342800 10.400515 21.385589 1.618149 0.198427 -11.419834 -4.541088 0.000000 0.000000 0.000000 0.000000 0.000000 0.000000 8.772916 2.282817 0.540176 120.546970 27.561495 -59.304574 108.064524 23.791053 -70.805129 -124.215110 -59.490234 -69.532646 0.000000 0.000000 0.000000 0.000000 0.000000 0.000000 14.759092 12.645873 36.911255 -19.123968 -0.153274 1.628792 29.970014 16.295552 -20.806516 0.000000 0.000000 0.000000 24.769650 39.604104 29.923462 -59.479432 -8.885150 -13.837224 38.516515 33.114979 -1.245737 0.000000 0.000000 0.000000
-30.494806 83.970969 337.769991 -4.801164 -2.677923 -40.730761 0.006159 -0.132165 40.483213 0.286800 -0.207695 -0.171019 3.459964 7.284572 -0.971343 0.000000 0.000000 0.000000 -3.004389 0.396439 3.060245 20.268088 3.853026 -6.861695 15.185989 25.861086 4.163109 -1.336062 -16.739345 -7.306421 0.000000 0.000000 0.000000 0.000000 0.000000 0.000000 8.092563 2.641521 0.452316 106.813287 33.180559 -53.061512 105.183828 9.436725 -106.402748 128.384752 -73.304651 -163.757094 0.000000 0.000000 0.000000 0.000000 0.000000 0.000000 13.151228 13.655595 36.579454 -17.693182 -1.703520 1.836026 29.520176 18.628603 -20.974354 0.000000 0.000000 0.000000 23.174411 37.858625 30.903080 -57.246387 -9.141899 -12.823235 26.888273 22.568990 5.392454 0.000000 0.000000 0.000000
-30.277868 85.941328 338.504729 -4.768916 -3.092855 -39.623107 0.085391 -0.132385 39.359568 0.325636 -0.202016 -0.162784 3.039624 6.552129 -0.429865 0.000000 0.000000 0.000000 -4.438851 2.762440 3.089770 33.136185 7.701790 -10.837391 23.635037 27.089989 9.923368 -6.723156 -14.771803 -15.433911 0.000000 0.000000 0.000000 0.000000 0.000000 0.000000 6.284504 2.417417 0.203049 73.489522 39.152837 -34.585950 121.706403 -35.317666 -166.627486 109.774872 -7.931059 -150.968778 0.000000 0.000000 0.000000 0.000000 0.000000 0.000000 11.450695 16.303342 34.311853 -18.452265 -6.584515 2.436242 27.848382 16.922577 -19.728934 0.000000 0.000000 0.000000 18.956524 33.140474 32.249755 -49.878578 -9.361361 -10.601547 16.878512 16.593496 9.510972 0.000000 0.000000 0.000000
